<svg xmlns="http://www.w3.org/2000/svg" viewBox="0 12.279999732971191 172.24000549316406 38.75" data-asc="1.00537109375" width="172.24000549316406" height="38.75"><defs/><g fill="#000000"><g transform="translate(0, 0)"><path d="M17.16 50.02Q15.87 50.37 14.34 50.59Q12.82 50.81 11.62 50.81Q7.45 50.81 5.27 48.56Q3.10 46.31 3.10 41.36L3.10 26.86L0 26.86L0 23.00L3.10 23.00L3.10 15.16L7.69 15.16L7.69 23.00L17.16 23.00L17.16 26.86L7.69 26.86L7.69 39.28Q7.69 41.43 7.79 42.64Q7.89 43.85 8.47 44.90Q9.01 45.87 9.95 46.33Q10.89 46.78 12.82 46.78Q13.94 46.78 15.16 46.45Q16.38 46.12 16.92 45.90L17.16 45.90L17.16 50.02ZM49.00 18.21L36.01 18.21L36.01 50.27L31.18 50.27L31.18 18.21L18.19 18.21L18.19 13.92L49.00 13.92L49.00 18.21ZM76.32 50.27L71.73 50.27L71.73 34.74Q71.73 32.86 71.51 31.21Q71.29 29.57 70.70 28.64Q70.09 27.61 68.95 27.11Q67.80 26.61 65.97 26.61Q64.09 26.61 62.04 27.54Q59.99 28.47 58.11 29.91L58.11 50.27L53.52 50.27L53.52 12.28L58.11 12.28L58.11 26.03Q60.25 24.24 62.55 23.24Q64.84 22.24 67.26 22.24Q71.68 22.24 74.00 24.90Q76.32 27.56 76.32 32.57L76.32 50.27ZM107.10 50.27L87.43 50.27L87.43 46.56L95.00 46.56L95.00 22.19L87.43 22.19L87.43 18.87Q88.96 18.87 90.72 18.62Q92.48 18.36 93.38 17.87Q94.51 17.26 95.15 16.32Q95.80 15.38 95.90 13.79L99.68 13.79L99.68 46.56L107.10 46.56L107.10 50.27ZM140.97 50.27L116.36 50.27L116.36 45.17Q118.92 42.97 121.50 40.77Q124.07 38.57 126.29 36.40Q130.98 31.86 132.71 29.19Q134.45 26.51 134.45 23.41Q134.45 20.58 132.58 18.98Q130.71 17.38 127.37 17.38Q125.15 17.38 122.56 18.16Q119.97 18.95 117.50 20.56L117.26 20.56L117.26 15.43Q118.99 14.58 121.89 13.87Q124.78 13.16 127.49 13.16Q133.08 13.16 136.25 15.86Q139.43 18.55 139.43 23.17Q139.43 25.24 138.90 27.04Q138.38 28.83 137.35 30.44Q136.40 31.96 135.12 33.42Q133.84 34.89 132.01 36.67Q129.39 39.23 126.61 41.64Q123.83 44.04 121.41 46.09L140.97 46.09L140.97 50.27ZM169.56 32.76Q170.73 33.81 171.48 35.40Q172.24 36.99 172.24 39.50Q172.24 41.99 171.34 44.07Q170.43 46.14 168.80 47.68Q166.97 49.39 164.49 50.21Q162.01 51.03 159.06 51.03Q156.03 51.03 153.10 50.31Q150.17 49.58 148.29 48.73L148.29 43.63L148.66 43.63Q150.73 45.00 153.54 45.90Q156.35 46.80 158.96 46.80Q160.50 46.80 162.23 46.29Q163.96 45.78 165.04 44.78Q166.16 43.70 166.71 42.41Q167.26 41.11 167.26 39.14Q167.26 37.18 166.64 35.90Q166.02 34.62 164.92 33.89Q163.82 33.13 162.26 32.85Q160.69 32.57 158.89 32.57L156.69 32.57L156.69 28.52L158.40 28.52Q162.11 28.52 164.32 26.97Q166.53 25.42 166.53 22.44Q166.53 21.12 165.97 20.13Q165.41 19.14 164.40 18.51Q163.35 17.87 162.16 17.63Q160.96 17.38 159.45 17.38Q157.13 17.38 154.52 18.21Q151.90 19.04 149.58 20.56L149.34 20.56L149.34 15.45Q151.07 14.60 153.97 13.88Q156.86 13.16 159.57 13.16Q162.23 13.16 164.26 13.65Q166.28 14.14 167.92 15.21Q169.68 16.38 170.58 18.04Q171.48 19.70 171.48 21.92Q171.48 24.95 169.35 27.21Q167.21 29.47 164.31 30.05L164.31 30.40Q165.48 30.59 166.99 31.21Q168.51 31.84 169.56 32.76Z"/></g></g></svg>